<?xml version="1.0" encoding="iso-8859-1"?>
<!-- Generator: Adobe Illustrator 19.0.0, SVG Export Plug-In . SVG Version: 6.00 Build 0)  -->
<svg version="1.1" id="Capa_1" xmlns="http://www.w3.org/2000/svg" xmlns:xlink="http://www.w3.org/1999/xlink" x="0px" y="0px"
	 viewBox="0 0 512 512" style="enable-background:new 0 0 512 512;" xml:space="preserve">
<g>
	<g>
		<path d="M472.315,39.54c-52.722-52.72-138.199-52.72-190.919,0l-67.227,67.227c26.477-4.678,53.743-2.941,79.517,5.336
			l30.135-30.135c29.29-29.29,76.776-29.29,106.066,0c29.29,29.29,29.29,76.776,0,106.066L323.822,294.099
			c-29.29,29.29-76.776,29.29-106.066,0c-11.997-11.995-18.803-27.067-20.975-42.665l-47.428,47.428
			c6.445,13.552,14.758,26.446,25.975,37.665c52.722,52.72,138.199,52.72,190.92,0l106.066-106.068
			C525.034,177.739,525.034,92.261,472.315,39.54z"/>
	</g>
</g>
<g>
	<g>
		<path d="M338.672,173.182c-52.722-52.722-138.199-52.722-190.919,0L39.687,281.54c-52.722,52.722-52.722,138.199,0,190.919
			c52.72,52.722,138.197,52.722,190.919,0l69.222-69.513c-26.477,4.678-53.743,2.941-79.517-5.336l-32.132,32.423
			c-29.29,29.29-76.776,29.29-106.066,0c-29.29-29.29-29.29-76.776,0-106.066L190.178,215.61c29.29-29.291,76.776-29.291,106.066,0
			c11.997,11.995,18.805,27.067,20.975,42.665l32.058-32.06l15.37-15.368C358.204,197.295,349.889,184.399,338.672,173.182z"/>
	</g>
</g>
<g>
</g>
<g>
</g>
<g>
</g>
<g>
</g>
<g>
</g>
<g>
</g>
<g>
</g>
<g>
</g>
<g>
</g>
<g>
</g>
<g>
</g>
<g>
</g>
<g>
</g>
<g>
</g>
<g>
</g>
</svg>
